<?xml version="1.0" encoding="UTF-8" standalone="no"?>
<svg
   id="Layer_1"
   data-name="Layer 1"
   viewBox="0 0 24 24"
   version="1.1"
   sodipodi:docname="back.svg"
   inkscape:version="1.1 (c68e22c387, 2021-05-23)"
   xmlns:inkscape="http://www.inkscape.org/namespaces/inkscape"
   xmlns:sodipodi="http://sodipodi.sourceforge.net/DTD/sodipodi-0.dtd"
   xmlns="http://www.w3.org/2000/svg"
   xmlns:svg="http://www.w3.org/2000/svg">
  <defs
     id="defs11" />
  <sodipodi:namedview
     id="namedview9"
     pagecolor="#ffffff"
     bordercolor="#666666"
     borderopacity="1.0"
     inkscape:pageshadow="2"
     inkscape:pageopacity="0.0"
     inkscape:pagecheckerboard="0"
     showgrid="false"
     inkscape:zoom="35.083333"
     inkscape:cx="11.985748"
     inkscape:cy="11.871734"
     inkscape:window-width="1920"
     inkscape:window-height="1046"
     inkscape:window-x="-11"
     inkscape:window-y="-11"
     inkscape:window-maximized="1"
     inkscape:current-layer="Layer_1" />
  <title
     id="title2">Left, Arrow, Back</title>
  <path
     d="M 11.995231,0 A 12.004769,12 0 1 0 24,12 12.004769,12 0 0 0 11.995231,0 Z m 0,22 A 10.003974,10 0 1 1 21.999205,12 10.003974,10 0 0 1 11.995231,22 Z"
     id="path4"
     style="stroke-width:1.0002" />
  <polygon
     points="14.11 5.67 7.77 12 14.11 18.33 15.52 16.92 10.6 12 15.52 7.08 14.11 5.67"
     id="polygon6" />
  <path
     style="fill:#a0a0a0;stroke:none;stroke-width:0.0285036"
     d="M 11.450949,23.969525 C 7.6847895,23.807684 4.1595874,21.825265 2.0522112,18.684086 0.88434342,16.943304 0.21532707,15.019487 0.04002466,12.897862 -0.00734305,12.324587 0.02288961,11.08219 0.09794107,10.517815 0.39635647,8.2737771 1.2559327,6.2435188 2.6422526,4.5083302 c 2.1429937,-2.68228 5.42581,-4.34634381 8.8304314,-4.47615713 2.687877,-0.10248487 5.178124,0.62259824 7.398107,2.15410003 0.781934,0.5394336 1.87879,1.5667451 2.474158,2.3172898 1.448619,1.8261843 2.296469,3.8800798 2.574473,6.2365981 0.06898,0.584721 0.06898,1.934957 0,2.519678 -0.230881,1.95708 -0.852782,3.697774 -1.889987,5.290055 -0.847414,1.300921 -2.024655,2.496204 -3.316846,3.367681 -1.805307,1.217531 -3.995499,1.959599 -6.021736,2.040248 -0.207523,0.0083 -0.460687,0.01903 -0.562587,0.02393 -0.1019,0.0049 -0.406693,-6.01e-4 -0.677317,-0.01223 z m 1.803208,-2.031851 c 3.050725,-0.412579 5.641438,-2.077295 7.259146,-4.664515 1.17708,-1.882517 1.687228,-4.167581 1.431791,-6.413302 C 21.53932,7.2924171 19.249548,4.2148489 15.946799,2.7978452 15.104828,2.4366078 14.205462,2.1920026 13.239905,2.0616366 12.758281,1.9966095 11.343371,1.9880347 10.874109,2.047299 8.7743002,2.3124895 6.9593131,3.1099972 5.4275803,4.4405108 4.4055224,5.3283041 3.6196558,6.3492467 3.0204416,7.567696 2.350227,8.9305189 2.0284103,10.233943 1.9894399,11.743468 c -0.061816,2.394457 0.6953938,4.642514 2.2033869,6.541568 0.5294309,0.666725 1.4574781,1.517764 2.1988313,2.016375 1.3878684,0.933436 2.971589,1.497659 4.6962279,1.673098 0.374284,0.03807 1.790426,0.01399 2.166271,-0.03683 z"
     id="path50" />
  <path
     style="fill:#ffffff;stroke:none;stroke-width:0.0285036"
     d="M 10.959537,15.149561 7.810073,12 10.959537,8.850439 14.109001,5.700878 14.800422,6.3918669 15.491843,7.0828557 13.033394,9.5414277 10.574945,12 l 2.458449,2.458572 2.458449,2.458572 -0.691421,0.690989 -0.691421,0.690989 z"
     id="path89" />
  <path
     style="fill:#ffffff;stroke-width:0.0285036"
     d="M 11.187648,23.942466 C 9.8133252,23.836638 8.548605,23.530196 7.3111639,23.003192 3.573407,21.411348 0.88383577,18.013956 0.2021785,14.023317 0.06417054,13.215375 0.05698238,13.114791 0.05758315,12 0.05822343,10.811896 0.07925479,10.568615 0.25903762,9.6696687 1.1071589,5.4289103 4.1372115,2.0102757 8.2685772,0.63296471 11.327946,-0.386965 14.792043,-0.08299896 17.639368,1.4552287 c 1.108204,0.5986918 1.883244,1.1824124 2.855306,2.150472 0.26761,0.2665083 0.588887,0.6082444 0.713949,0.7594133 0.925398,1.1185802 1.72531,2.5709567 2.162105,3.9256706 0.227786,0.7064759 0.40302,1.4871985 0.519054,2.3125404 0.07157,0.509067 0.07273,2.244817 0.0019,2.771234 -0.230865,1.714674 -0.731709,3.213414 -1.546381,4.627435 -0.879476,1.5265 -2.211848,2.943107 -3.703924,3.938092 -1.602115,1.068365 -3.51733,1.76728 -5.36531,1.957952 -0.532088,0.0549 -1.644929,0.07858 -2.088372,0.04443 z m 1.710214,-1.966786 c 0.227316,-0.01443 0.567221,-0.0527 0.755345,-0.08505 0.43851,-0.07539 1.137293,-0.248968 1.149703,-0.285583 0.0053,-0.01552 0.02161,-0.02076 0.03634,-0.01166 0.03463,0.0214 0.57395,-0.158334 0.999779,-0.333198 1.60313,-0.658318 2.996713,-1.720957 4.078966,-3.110305 1.005407,-1.290697 1.641878,-2.718933 1.940363,-4.354165 0.08384,-0.4593 0.144099,-0.988747 0.126324,-1.109858 -0.007,-0.04801 -4.76e-4,-0.08729 0.0146,-0.08729 0.04221,0 0.0038,-1.410241 -0.04955,-1.818374 C 21.442785,6.9005139 18.888039,3.7592446 15.223956,2.5103051 14.483861,2.2580365 13.626429,2.0752291 12.94776,2.0250131 c -0.450567,-0.033338 -1.76011,-0.038152 -1.76011,-0.00647 0,0.012244 -0.04517,0.016989 -0.100373,0.010544 -0.181976,-0.021245 -1.3533083,0.1757411 -1.3533083,0.2275892 0,0.014833 -0.012778,0.019072 -0.028395,0.00942 C 9.6666721,2.2420591 9.1111519,2.3931527 8.6481899,2.5536935 5.3584923,3.6944577 2.8653446,6.5561669 2.169176,9.9904988 2.0243322,10.705041 1.9960777,11.03625 1.9965358,12.014252 c 4.56e-4,0.97353 0.022991,1.234406 0.1711236,1.980997 0.2930477,1.476967 0.9788686,2.972302 1.9151776,4.175772 0.7112608,0.914209 1.803533,1.871028 2.8112203,2.4626 1.2560032,0.737349 2.5352671,1.1528 4.1653247,1.352721 0.177958,0.02183 1.442229,0.01449 1.83848,-0.01066 z"
     id="path165" />
</svg>
